<?xml version="1.0" encoding="UTF-8" standalone="no"?>
<!DOCTYPE svg PUBLIC "-//W3C//DTD SVG 20010904//EN" "http://www.w3.org/TR/2001/REC-SVG-20010904/DTD/svg10.dtd">
<svg viewBox="0 0 1500 500" xmlns="http://www.w3.org/2000/svg" xmlns:xlink="http://www.w3.org/1999/xlink" xml:space="preserve"><defs><clipPath id="b10331"><rect x="58" y="34" width="1434" height="388"/></clipPath><clipPath id="b10376"><rect x="58" y="34" width="1434" height="388"/></clipPath></defs><g font-family="Arial" font-size="11px" fill="none" fill-rule="evenodd" stroke-linecap="square" stroke-miterlimit="1.42"><rect id="b10330" x="59" y="35" width="1432" height="386"/><use xlink:href="#b10330" fill="#ffffff"/><g clip-path="url(#b10331)"/><line id="b10332" x1="58.5" y1="408.5" x2="1491.5" y2="408.5"/><use xlink:href="#b10332" stroke="#d6d7d8"/><line id="b10333" x1="58.5" y1="390.5" x2="1491.5" y2="390.5"/><use xlink:href="#b10333" stroke="#d6d7d8"/><line id="b10334" x1="58.5" y1="372.5" x2="1491.5" y2="372.5"/><use xlink:href="#b10334" stroke="#d6d7d8"/><line id="b10335" x1="58.5" y1="354.5" x2="1491.5" y2="354.5"/><use xlink:href="#b10335" stroke="#d6d7d8"/><line id="b10336" x1="58.5" y1="337.5" x2="1491.5" y2="337.5"/><use xlink:href="#b10336" stroke="#d6d7d8"/><line id="b10337" x1="58.5" y1="319.5" x2="1491.5" y2="319.5"/><use xlink:href="#b10337" stroke="#d6d7d8"/><line id="b10338" x1="58.5" y1="301.5" x2="1491.5" y2="301.5"/><use xlink:href="#b10338" stroke="#d6d7d8"/><line id="b10339" x1="58.5" y1="283.5" x2="1491.5" y2="283.5"/><use xlink:href="#b10339" stroke="#d6d7d8"/><line id="b10340" x1="58.5" y1="265.5" x2="1491.5" y2="265.5"/><use xlink:href="#b10340" stroke="#d6d7d8"/><line id="b10341" x1="58.5" y1="247.5" x2="1491.5" y2="247.5"/><use xlink:href="#b10341" stroke="#d6d7d8"/><line id="b10342" x1="58.5" y1="229.5" x2="1491.5" y2="229.5"/><use xlink:href="#b10342" stroke="#d6d7d8"/><line id="b10343" x1="58.5" y1="211.5" x2="1491.5" y2="211.5"/><use xlink:href="#b10343" stroke="#d6d7d8"/><line id="b10344" x1="58.5" y1="194.5" x2="1491.5" y2="194.5"/><use xlink:href="#b10344" stroke="#d6d7d8"/><line id="b10345" x1="58.5" y1="176.5" x2="1491.5" y2="176.5"/><use xlink:href="#b10345" stroke="#d6d7d8"/><line id="b10346" x1="58.5" y1="158.5" x2="1491.5" y2="158.5"/><use xlink:href="#b10346" stroke="#d6d7d8"/><line id="b10347" x1="58.5" y1="140.5" x2="1491.5" y2="140.5"/><use xlink:href="#b10347" stroke="#d6d7d8"/><line id="b10348" x1="58.5" y1="122.5" x2="1491.5" y2="122.5"/><use xlink:href="#b10348" stroke="#d6d7d8"/><line id="b10349" x1="58.5" y1="104.5" x2="1491.5" y2="104.5"/><use xlink:href="#b10349" stroke="#d6d7d8"/><line id="b10350" x1="58.5" y1="86.5" x2="1491.5" y2="86.5"/><use xlink:href="#b10350" stroke="#d6d7d8"/><line id="b10351" x1="58.5" y1="68.5" x2="1491.5" y2="68.5"/><use xlink:href="#b10351" stroke="#d6d7d8"/><line id="b10352" x1="58.5" y1="51.5" x2="1491.5" y2="51.5"/><use xlink:href="#b10352" stroke="#d6d7d8"/><line id="b10353" x1="166.5" y1="421.5" x2="166.5" y2="34.5"/><use xlink:href="#b10353" stroke="#d6d7d8"/><line id="b10354" x1="227.5" y1="421.5" x2="227.5" y2="34.5"/><use xlink:href="#b10354" stroke="#d6d7d8"/><line id="b10355" x1="287.5" y1="421.5" x2="287.5" y2="34.5"/><use xlink:href="#b10355" stroke="#d6d7d8"/><line id="b10356" x1="347.5" y1="421.5" x2="347.5" y2="34.5"/><use xlink:href="#b10356" stroke="#d6d7d8"/><line id="b10357" x1="407.5" y1="421.5" x2="407.5" y2="34.5"/><use xlink:href="#b10357" stroke="#d6d7d8"/><line id="b10358" x1="467.5" y1="421.5" x2="467.5" y2="34.5"/><use xlink:href="#b10358" stroke="#d6d7d8"/><line id="b10359" x1="528.5" y1="421.5" x2="528.5" y2="34.5"/><use xlink:href="#b10359" stroke="#d6d7d8"/><line id="b10360" x1="588.5" y1="421.5" x2="588.5" y2="34.5"/><use xlink:href="#b10360" stroke="#d6d7d8"/><line id="b10361" x1="648.5" y1="421.5" x2="648.5" y2="34.5"/><use xlink:href="#b10361" stroke="#d6d7d8"/><line id="b10362" x1="708.5" y1="421.5" x2="708.5" y2="34.5"/><use xlink:href="#b10362" stroke="#d6d7d8"/><line id="b10363" x1="768.5" y1="421.5" x2="768.5" y2="34.5"/><use xlink:href="#b10363" stroke="#d6d7d8"/><line id="b10364" x1="829.5" y1="421.5" x2="829.5" y2="34.5"/><use xlink:href="#b10364" stroke="#d6d7d8"/><line id="b10365" x1="889.5" y1="421.5" x2="889.5" y2="34.5"/><use xlink:href="#b10365" stroke="#d6d7d8"/><line id="b10366" x1="949.5" y1="421.5" x2="949.5" y2="34.5"/><use xlink:href="#b10366" stroke="#d6d7d8"/><line id="b10367" x1="1009.5" y1="421.5" x2="1009.5" y2="34.5"/><use xlink:href="#b10367" stroke="#d6d7d8"/><line id="b10368" x1="1070.5" y1="421.5" x2="1070.5" y2="34.5"/><use xlink:href="#b10368" stroke="#d6d7d8"/><line id="b10369" x1="1130.5" y1="421.5" x2="1130.5" y2="34.5"/><use xlink:href="#b10369" stroke="#d6d7d8"/><line id="b10370" x1="1190.5" y1="421.5" x2="1190.5" y2="34.5"/><use xlink:href="#b10370" stroke="#d6d7d8"/><line id="b10371" x1="1250.5" y1="421.5" x2="1250.5" y2="34.5"/><use xlink:href="#b10371" stroke="#d6d7d8"/><line id="b10372" x1="1310.5" y1="421.5" x2="1310.5" y2="34.5"/><use xlink:href="#b10372" stroke="#d6d7d8"/><line id="b10373" x1="1371.5" y1="421.5" x2="1371.5" y2="34.5"/><use xlink:href="#b10373" stroke="#d6d7d8"/><line id="b10374" x1="1431.5" y1="421.5" x2="1431.5" y2="34.5"/><use xlink:href="#b10374" stroke="#d6d7d8"/><line id="b10375" x1="1491.5" y1="421.5" x2="1491.5" y2="34.5"/><use xlink:href="#b10375" stroke="#d6d7d8"/><g clip-path="url(#b10376)"><path id="b10377" stroke-linecap="butt" d="M82.5,421.5 L82.5,393.5 L94.5,364.5 L106.5,317.5 L118.5,378.5 L130.5,381.5 L142.5,353.5 L154.5,343.5 L166.5,367.5 L178.5,388.5 L190.5,313.5 L203.5,338.5 L215.5,367.5 L227.5,314.5 L239.5,283.5 L251.5,298.5 L263.5,254.5 L275.5,295.5 L287.5,293.5 L299.5,261.5 L311.5,276.5 L323.5,54.5 L335.5,339.5 L347.5,317.5 L359.5,259.5 L371.5,279.5 L383.5,325.5 L395.5,359.5 L407.5,337.5 L419.5,287.5 L431.5,344.5 L431.5,421.5 L82.5,421.5 Z"/><use xlink:href="#b10377" fill="#0b2558" fill-opacity="0.1176"/><line id="b10378" x1="82.5" y1="393.5" x2="82.5" y2="421.5"/><use xlink:href="#b10378" stroke="#0b2558"/><line id="b10379" x1="431.5" y1="421.5" x2="431.5" y2="344.5"/><use xlink:href="#b10379" stroke="#0b2558"/><line id="b10380" x1="82.5" y1="421.5" x2="431.5" y2="421.5"/><use xlink:href="#b10380" stroke="#0b2558"/><path id="b10381" stroke-linecap="butt" d="M588.5,421.5 L588.5,359.5 L600.5,290.5 L612.5,297.5 L624.5,293.5 L636.5,332.5 L648.5,313.5 L660.5,293.5 L672.5,293.5 L672.5,421.5 L588.5,421.5 Z"/><use xlink:href="#b10381" fill="#0b2558" fill-opacity="0.1176"/><line id="b10382" x1="588.5" y1="359.5" x2="588.5" y2="421.5"/><use xlink:href="#b10382" stroke="#0b2558"/><line id="b10383" x1="672.5" y1="421.5" x2="672.5" y2="293.5"/><use xlink:href="#b10383" stroke="#0b2558"/><line id="b10384" x1="588.5" y1="421.5" x2="672.5" y2="421.5"/><use xlink:href="#b10384" stroke="#0b2558"/><path id="b10385" stroke-linecap="butt" d="M1262.5,421.5 L1262.5,396.5 L1274.5,396.5 L1298.5,400.5 L1322.5,386.5 L1334.5,393.5 L1346.5,393.5 L1359.5,381.5 L1371.5,392.5 L1383.5,380.5 L1395.5,395.5 L1407.5,387.5 L1419.5,397.5 L1431.5,402.5 L1443.5,395.5 L1455.5,398.5 L1467.5,385.5 L1479.5,391.5 L1491.5,358.5 L1491.5,421.5 L1262.5,421.5 Z"/><use xlink:href="#b10385" fill="#0b2558" fill-opacity="0.1176"/><line id="b10386" x1="1262.5" y1="396.5" x2="1262.5" y2="421.5"/><use xlink:href="#b10386" stroke="#0b2558"/><line id="b10387" x1="1491.5" y1="421.5" x2="1491.5" y2="358.5"/><use xlink:href="#b10387" stroke="#0b2558"/><line id="b10388" x1="1262.5" y1="421.5" x2="1491.5" y2="421.5"/><use xlink:href="#b10388" stroke="#0b2558"/><polyline id="b10389" points="82.5 393.5 94.5 364.5 106.5 317.5 118.5 378.5 130.5 381.5 142.5 353.5 154.5 343.5 166.5 367.5 178.5 388.5 190.5 313.5 203.5 338.5 215.5 367.5 227.5 314.5 239.5 283.5 251.5 298.5 263.5 254.5 275.5 295.5 287.5 293.5 299.5 261.5 311.5 276.5 323.5 54.5 335.5 339.5 347.5 317.5 359.5 259.5 371.5 279.5 383.5 325.5 395.5 359.5 407.5 337.5 419.5 287.5 431.5 344.5"/><use xlink:href="#b10389" stroke="#0b2558"/><polyline id="b10390" points="588.5 359.5 600.5 290.5 612.5 297.5 624.5 293.5 636.5 332.5 648.5 313.5 660.5 293.5 672.5 293.5"/><use xlink:href="#b10390" stroke="#0b2558"/><polyline id="b10393" points="1262.5 396.5 1274.5 396.5 1286.5 398.5 1298.5 400.5 1310.5 393.5 1322.5 386.5 1334.5 393.5 1346.5 393.5 1359.5 381.5 1371.5 392.5 1383.5 380.5 1395.5 395.5 1407.5 387.5 1419.5 397.5 1431.5 402.5 1443.5 395.5 1455.5 398.5 1467.5 385.5 1479.5 391.5 1491.5 358.5"/><use xlink:href="#b10393" stroke="#0b2558"/><defs><symbol id="g10391" viewBox="0 0 5 5" preserveAspectRatio="none"><g font-family="Arial" font-size="11px" fill="none" fill-rule="evenodd" stroke-linecap="square" stroke-miterlimit="1.42"><path id="b10392" stroke-linecap="butt" d="M2.5,0.5 A2,2 0 0 1 2.5,4.5 A2,2 0 0 1 2.5,0.5 Z"/><use xlink:href="#b10392" fill="#0b2558" stroke="#0b2558"/></g></symbol></defs><use x="1429" y="400" width="5" height="5" xlink:href="#g10391"/><use x="321" y="52" width="5" height="5" xlink:href="#g10391"/><defs><symbol id="g10394" viewBox="0 0 3 3" preserveAspectRatio="none"><g font-family="Arial" font-size="11px" fill="none" fill-rule="evenodd" stroke-linecap="square" stroke-miterlimit="1.42"><path id="b10395" stroke-linecap="butt" d="M1.5,0.5 A1,1 0 0 1 1.5,2.5 A1,1 0 0 1 1.5,0.5 Z"/><use xlink:href="#b10395" fill="#e30613" stroke="#e30613"/></g></symbol></defs><use x="442" y="37" width="3" height="3" xlink:href="#g10394"/><use x="454" y="37" width="3" height="3" xlink:href="#g10394"/><use x="466" y="37" width="3" height="3" xlink:href="#g10394"/><use x="478" y="37" width="3" height="3" xlink:href="#g10394"/><use x="671" y="37" width="3" height="3" xlink:href="#g10394"/><use x="683" y="37" width="3" height="3" xlink:href="#g10394"/><use x="695" y="37" width="3" height="3" xlink:href="#g10394"/><use x="707" y="37" width="3" height="3" xlink:href="#g10394"/><use x="719" y="37" width="3" height="3" xlink:href="#g10394"/><use x="731" y="37" width="3" height="3" xlink:href="#g10394"/><use x="743" y="37" width="3" height="3" xlink:href="#g10394"/><use x="755" y="37" width="3" height="3" xlink:href="#g10394"/><use x="767" y="37" width="3" height="3" xlink:href="#g10394"/><use x="780" y="37" width="3" height="3" xlink:href="#g10394"/><use x="792" y="37" width="3" height="3" xlink:href="#g10394"/><use x="804" y="37" width="3" height="3" xlink:href="#g10394"/><use x="816" y="37" width="3" height="3" xlink:href="#g10394"/><use x="828" y="37" width="3" height="3" xlink:href="#g10394"/><use x="840" y="37" width="3" height="3" xlink:href="#g10394"/><use x="852" y="37" width="3" height="3" xlink:href="#g10394"/><use x="864" y="37" width="3" height="3" xlink:href="#g10394"/><use x="876" y="37" width="3" height="3" xlink:href="#g10394"/><use x="888" y="37" width="3" height="3" xlink:href="#g10394"/><use x="900" y="37" width="3" height="3" xlink:href="#g10394"/><use x="912" y="37" width="3" height="3" xlink:href="#g10394"/><use x="924" y="37" width="3" height="3" xlink:href="#g10394"/><use x="936" y="37" width="3" height="3" xlink:href="#g10394"/><use x="948" y="37" width="3" height="3" xlink:href="#g10394"/><use x="960" y="37" width="3" height="3" xlink:href="#g10394"/><use x="972" y="37" width="3" height="3" xlink:href="#g10394"/><use x="984" y="37" width="3" height="3" xlink:href="#g10394"/><use x="996" y="37" width="3" height="3" xlink:href="#g10394"/><use x="1008" y="37" width="3" height="3" xlink:href="#g10394"/><use x="1020" y="37" width="3" height="3" xlink:href="#g10394"/><use x="1032" y="37" width="3" height="3" xlink:href="#g10394"/><use x="1044" y="37" width="3" height="3" xlink:href="#g10394"/><use x="1056" y="37" width="3" height="3" xlink:href="#g10394"/><use x="1069" y="37" width="3" height="3" xlink:href="#g10394"/><use x="1081" y="37" width="3" height="3" xlink:href="#g10394"/><use x="1093" y="37" width="3" height="3" xlink:href="#g10394"/><use x="1105" y="37" width="3" height="3" xlink:href="#g10394"/><use x="1117" y="37" width="3" height="3" xlink:href="#g10394"/><use x="1129" y="37" width="3" height="3" xlink:href="#g10394"/><use x="1141" y="37" width="3" height="3" xlink:href="#g10394"/><use x="1153" y="37" width="3" height="3" xlink:href="#g10394"/><use x="1165" y="37" width="3" height="3" xlink:href="#g10394"/><use x="1177" y="37" width="3" height="3" xlink:href="#g10394"/><use x="1189" y="37" width="3" height="3" xlink:href="#g10394"/><use x="1201" y="37" width="3" height="3" xlink:href="#g10394"/><use x="1213" y="37" width="3" height="3" xlink:href="#g10394"/><use x="1225" y="37" width="3" height="3" xlink:href="#g10394"/><use x="1237" y="37" width="3" height="3" xlink:href="#g10394"/><use x="1249" y="37" width="3" height="3" xlink:href="#g10394"/><use x="1261" y="37" width="3" height="3" xlink:href="#g10394"/></g><rect id="b10396" x="58.5" y="34.5" width="1433" height="387"/><use xlink:href="#b10396" stroke="#d6d7d8"/><line id="b10397" x1="58.5" y1="421.5" x2="58.5" y2="34.5"/><use xlink:href="#b10397" stroke="#0b2558"/><line id="b10398" x1="55.5" y1="408.5" x2="57.5" y2="408.5"/><use xlink:href="#b10398" stroke="#0b2558"/><line id="b10399" x1="55.5" y1="390.5" x2="57.5" y2="390.5"/><use xlink:href="#b10399" stroke="#0b2558"/><line id="b10400" x1="55.5" y1="372.5" x2="57.5" y2="372.5"/><use xlink:href="#b10400" stroke="#0b2558"/><line id="b10401" x1="55.5" y1="354.5" x2="57.5" y2="354.5"/><use xlink:href="#b10401" stroke="#0b2558"/><line id="b10402" x1="55.5" y1="337.5" x2="57.5" y2="337.5"/><use xlink:href="#b10402" stroke="#0b2558"/><line id="b10403" x1="55.5" y1="319.5" x2="57.5" y2="319.5"/><use xlink:href="#b10403" stroke="#0b2558"/><line id="b10404" x1="55.5" y1="301.5" x2="57.5" y2="301.5"/><use xlink:href="#b10404" stroke="#0b2558"/><line id="b10405" x1="55.5" y1="283.5" x2="57.5" y2="283.5"/><use xlink:href="#b10405" stroke="#0b2558"/><line id="b10406" x1="55.5" y1="265.5" x2="57.5" y2="265.5"/><use xlink:href="#b10406" stroke="#0b2558"/><line id="b10407" x1="55.5" y1="247.5" x2="57.5" y2="247.5"/><use xlink:href="#b10407" stroke="#0b2558"/><line id="b10408" x1="55.5" y1="229.5" x2="57.5" y2="229.5"/><use xlink:href="#b10408" stroke="#0b2558"/><line id="b10409" x1="55.5" y1="211.5" x2="57.5" y2="211.5"/><use xlink:href="#b10409" stroke="#0b2558"/><line id="b10410" x1="55.5" y1="194.5" x2="57.5" y2="194.5"/><use xlink:href="#b10410" stroke="#0b2558"/><line id="b10411" x1="55.5" y1="176.5" x2="57.5" y2="176.5"/><use xlink:href="#b10411" stroke="#0b2558"/><line id="b10412" x1="55.5" y1="158.5" x2="57.5" y2="158.5"/><use xlink:href="#b10412" stroke="#0b2558"/><line id="b10413" x1="55.5" y1="140.5" x2="57.5" y2="140.5"/><use xlink:href="#b10413" stroke="#0b2558"/><line id="b10414" x1="55.5" y1="122.5" x2="57.5" y2="122.5"/><use xlink:href="#b10414" stroke="#0b2558"/><line id="b10415" x1="55.5" y1="104.5" x2="57.5" y2="104.5"/><use xlink:href="#b10415" stroke="#0b2558"/><line id="b10416" x1="55.5" y1="86.5" x2="57.5" y2="86.5"/><use xlink:href="#b10416" stroke="#0b2558"/><line id="b10417" x1="55.5" y1="68.5" x2="57.5" y2="68.5"/><use xlink:href="#b10417" stroke="#0b2558"/><line id="b10418" x1="55.5" y1="51.5" x2="57.5" y2="51.5"/><use xlink:href="#b10418" stroke="#0b2558"/><text id="b10419" style="font-family:'Tahoma';font-size:11px;" x="34" y="413">200</text><use xlink:href="#b10419" fill="#575756"/><text id="b10420" style="font-family:'Tahoma';font-size:11px;" x="34" y="395">300</text><use xlink:href="#b10420" fill="#575756"/><text id="b10421" style="font-family:'Tahoma';font-size:11px;" x="34" y="377">400</text><use xlink:href="#b10421" fill="#575756"/><text id="b10422" style="font-family:'Tahoma';font-size:11px;" x="34" y="359">500</text><use xlink:href="#b10422" fill="#575756"/><text id="b10423" style="font-family:'Tahoma';font-size:11px;" x="34" y="342">600</text><use xlink:href="#b10423" fill="#575756"/><text id="b10424" style="font-family:'Tahoma';font-size:11px;" x="34" y="324">700</text><use xlink:href="#b10424" fill="#575756"/><text id="b10425" style="font-family:'Tahoma';font-size:11px;" x="34" y="306">800</text><use xlink:href="#b10425" fill="#575756"/><text id="b10426" style="font-family:'Tahoma';font-size:11px;" x="34" y="288">900</text><use xlink:href="#b10426" fill="#575756"/><text id="b10427" style="font-family:'Tahoma';font-size:11px;" x="24" y="270">1,000</text><use xlink:href="#b10427" fill="#575756"/><text id="b10428" style="font-family:'Tahoma';font-size:11px;" x="24" y="252">1,100</text><use xlink:href="#b10428" fill="#575756"/><text id="b10429" style="font-family:'Tahoma';font-size:11px;" x="24" y="234">1,200</text><use xlink:href="#b10429" fill="#575756"/><text id="b10430" style="font-family:'Tahoma';font-size:11px;" x="24" y="216">1,300</text><use xlink:href="#b10430" fill="#575756"/><text id="b10431" style="font-family:'Tahoma';font-size:11px;" x="24" y="199">1,400</text><use xlink:href="#b10431" fill="#575756"/><text id="b10432" style="font-family:'Tahoma';font-size:11px;" x="24" y="181">1,500</text><use xlink:href="#b10432" fill="#575756"/><text id="b10433" style="font-family:'Tahoma';font-size:11px;" x="24" y="163">1,600</text><use xlink:href="#b10433" fill="#575756"/><text id="b10434" style="font-family:'Tahoma';font-size:11px;" x="24" y="145">1,700</text><use xlink:href="#b10434" fill="#575756"/><text id="b10435" style="font-family:'Tahoma';font-size:11px;" x="24" y="127">1,800</text><use xlink:href="#b10435" fill="#575756"/><text id="b10436" style="font-family:'Tahoma';font-size:11px;" x="24" y="109">1,900</text><use xlink:href="#b10436" fill="#575756"/><text id="b10437" style="font-family:'Tahoma';font-size:11px;" x="24" y="91">2,000</text><use xlink:href="#b10437" fill="#575756"/><text id="b10438" style="font-family:'Tahoma';font-size:11px;" x="24" y="73">2,100</text><use xlink:href="#b10438" fill="#575756"/><text id="b10439" style="font-family:'Tahoma';font-size:11px;" x="24" y="56">2,200</text><use xlink:href="#b10439" fill="#575756"/><defs><symbol id="g10440" viewBox="0 0 34 14" preserveAspectRatio="none"><g font-family="Arial" font-size="11px" fill="none" fill-rule="evenodd" stroke-linecap="square" stroke-miterlimit="1.42"><text id="b10441" style="font-family:'Tahoma';font-size:11px;" x="5" y="11">msec</text><use xlink:href="#b10441" fill="#575756"/></g></symbol></defs><use x="6" y="245" width="34" height="14" xlink:href="#g10440" transform="rotate(-90,6,245)"/><line id="b10442" x1="58.5" y1="421.5" x2="1491.5" y2="421.5"/><use xlink:href="#b10442" stroke="#000000"/><line id="b10443" x1="166.5" y1="422.5" x2="166.5" y2="422.5"/><use xlink:href="#b10443" stroke="#000000"/><line id="b10444" x1="227.5" y1="422.5" x2="227.5" y2="422.5"/><use xlink:href="#b10444" stroke="#000000"/><line id="b10445" x1="287.5" y1="422.5" x2="287.5" y2="422.5"/><use xlink:href="#b10445" stroke="#000000"/><line id="b10446" x1="347.5" y1="422.5" x2="347.5" y2="422.5"/><use xlink:href="#b10446" stroke="#000000"/><line id="b10447" x1="407.5" y1="422.5" x2="407.5" y2="422.5"/><use xlink:href="#b10447" stroke="#000000"/><line id="b10448" x1="467.5" y1="422.5" x2="467.5" y2="422.5"/><use xlink:href="#b10448" stroke="#000000"/><line id="b10449" x1="528.5" y1="422.5" x2="528.5" y2="422.5"/><use xlink:href="#b10449" stroke="#000000"/><line id="b10450" x1="588.5" y1="422.5" x2="588.5" y2="422.5"/><use xlink:href="#b10450" stroke="#000000"/><line id="b10451" x1="648.5" y1="422.5" x2="648.5" y2="422.5"/><use xlink:href="#b10451" stroke="#000000"/><line id="b10452" x1="708.5" y1="422.5" x2="708.5" y2="422.5"/><use xlink:href="#b10452" stroke="#000000"/><line id="b10453" x1="768.5" y1="422.5" x2="768.5" y2="422.5"/><use xlink:href="#b10453" stroke="#000000"/><line id="b10454" x1="829.5" y1="422.5" x2="829.5" y2="422.5"/><use xlink:href="#b10454" stroke="#000000"/><line id="b10455" x1="889.5" y1="422.5" x2="889.5" y2="422.5"/><use xlink:href="#b10455" stroke="#000000"/><line id="b10456" x1="949.5" y1="422.5" x2="949.5" y2="422.5"/><use xlink:href="#b10456" stroke="#000000"/><line id="b10457" x1="1009.5" y1="422.5" x2="1009.5" y2="422.5"/><use xlink:href="#b10457" stroke="#000000"/><line id="b10458" x1="1070.5" y1="422.5" x2="1070.5" y2="422.5"/><use xlink:href="#b10458" stroke="#000000"/><line id="b10459" x1="1130.5" y1="422.5" x2="1130.5" y2="422.5"/><use xlink:href="#b10459" stroke="#000000"/><line id="b10460" x1="1190.5" y1="422.5" x2="1190.5" y2="422.5"/><use xlink:href="#b10460" stroke="#000000"/><line id="b10461" x1="1250.5" y1="422.5" x2="1250.5" y2="422.5"/><use xlink:href="#b10461" stroke="#000000"/><line id="b10462" x1="1310.5" y1="422.5" x2="1310.5" y2="422.5"/><use xlink:href="#b10462" stroke="#000000"/><line id="b10463" x1="1371.5" y1="422.5" x2="1371.5" y2="422.5"/><use xlink:href="#b10463" stroke="#000000"/><line id="b10464" x1="1431.5" y1="422.5" x2="1431.5" y2="422.5"/><use xlink:href="#b10464" stroke="#000000"/><line id="b10465" x1="1491.5" y1="422.5" x2="1491.5" y2="422.5"/><use xlink:href="#b10465" stroke="#000000"/><defs><symbol id="g10466" viewBox="0 0 49 14" preserveAspectRatio="none"><g font-family="Arial" font-size="11px" fill="none" fill-rule="evenodd" stroke-linecap="square" stroke-miterlimit="1.42"><text id="b10467" style="font-family:'Tahoma';font-size:11px;" x="5" y="11">7:00 PM</text><use xlink:href="#b10467" fill="#575756"/></g></symbol></defs><use x="160" y="469" width="49" height="14" xlink:href="#g10466" transform="rotate(-90,160,469)"/><defs><symbol id="g10468" viewBox="0 0 49 14" preserveAspectRatio="none"><g font-family="Arial" font-size="11px" fill="none" fill-rule="evenodd" stroke-linecap="square" stroke-miterlimit="1.42"><text id="b10469" style="font-family:'Tahoma';font-size:11px;" x="5" y="11">7:05 PM</text><use xlink:href="#b10469" fill="#575756"/></g></symbol></defs><use x="221" y="469" width="49" height="14" xlink:href="#g10468" transform="rotate(-90,221,469)"/><defs><symbol id="g10470" viewBox="0 0 49 14" preserveAspectRatio="none"><g font-family="Arial" font-size="11px" fill="none" fill-rule="evenodd" stroke-linecap="square" stroke-miterlimit="1.42"><text id="b10471" style="font-family:'Tahoma';font-size:11px;" x="5" y="11">7:10 PM</text><use xlink:href="#b10471" fill="#575756"/></g></symbol></defs><use x="281" y="469" width="49" height="14" xlink:href="#g10470" transform="rotate(-90,281,469)"/><defs><symbol id="g10472" viewBox="0 0 49 14" preserveAspectRatio="none"><g font-family="Arial" font-size="11px" fill="none" fill-rule="evenodd" stroke-linecap="square" stroke-miterlimit="1.42"><text id="b10473" style="font-family:'Tahoma';font-size:11px;" x="5" y="11">7:15 PM</text><use xlink:href="#b10473" fill="#575756"/></g></symbol></defs><use x="341" y="469" width="49" height="14" xlink:href="#g10472" transform="rotate(-90,341,469)"/><defs><symbol id="g10474" viewBox="0 0 49 14" preserveAspectRatio="none"><g font-family="Arial" font-size="11px" fill="none" fill-rule="evenodd" stroke-linecap="square" stroke-miterlimit="1.42"><text id="b10475" style="font-family:'Tahoma';font-size:11px;" x="5" y="11">7:20 PM</text><use xlink:href="#b10475" fill="#575756"/></g></symbol></defs><use x="401" y="469" width="49" height="14" xlink:href="#g10474" transform="rotate(-90,401,469)"/><defs><symbol id="g10476" viewBox="0 0 49 14" preserveAspectRatio="none"><g font-family="Arial" font-size="11px" fill="none" fill-rule="evenodd" stroke-linecap="square" stroke-miterlimit="1.42"><text id="b10477" style="font-family:'Tahoma';font-size:11px;" x="5" y="11">7:25 PM</text><use xlink:href="#b10477" fill="#575756"/></g></symbol></defs><use x="461" y="469" width="49" height="14" xlink:href="#g10476" transform="rotate(-90,461,469)"/><defs><symbol id="g10478" viewBox="0 0 49 14" preserveAspectRatio="none"><g font-family="Arial" font-size="11px" fill="none" fill-rule="evenodd" stroke-linecap="square" stroke-miterlimit="1.42"><text id="b10479" style="font-family:'Tahoma';font-size:11px;" x="5" y="11">7:30 PM</text><use xlink:href="#b10479" fill="#575756"/></g></symbol></defs><use x="522" y="469" width="49" height="14" xlink:href="#g10478" transform="rotate(-90,522,469)"/><defs><symbol id="g10480" viewBox="0 0 49 14" preserveAspectRatio="none"><g font-family="Arial" font-size="11px" fill="none" fill-rule="evenodd" stroke-linecap="square" stroke-miterlimit="1.42"><text id="b10481" style="font-family:'Tahoma';font-size:11px;" x="5" y="11">7:35 PM</text><use xlink:href="#b10481" fill="#575756"/></g></symbol></defs><use x="582" y="469" width="49" height="14" xlink:href="#g10480" transform="rotate(-90,582,469)"/><defs><symbol id="g10482" viewBox="0 0 49 14" preserveAspectRatio="none"><g font-family="Arial" font-size="11px" fill="none" fill-rule="evenodd" stroke-linecap="square" stroke-miterlimit="1.42"><text id="b10483" style="font-family:'Tahoma';font-size:11px;" x="5" y="11">7:40 PM</text><use xlink:href="#b10483" fill="#575756"/></g></symbol></defs><use x="642" y="469" width="49" height="14" xlink:href="#g10482" transform="rotate(-90,642,469)"/><defs><symbol id="g10484" viewBox="0 0 49 14" preserveAspectRatio="none"><g font-family="Arial" font-size="11px" fill="none" fill-rule="evenodd" stroke-linecap="square" stroke-miterlimit="1.42"><text id="b10485" style="font-family:'Tahoma';font-size:11px;" x="5" y="11">7:45 PM</text><use xlink:href="#b10485" fill="#575756"/></g></symbol></defs><use x="702" y="469" width="49" height="14" xlink:href="#g10484" transform="rotate(-90,702,469)"/><defs><symbol id="g10486" viewBox="0 0 49 14" preserveAspectRatio="none"><g font-family="Arial" font-size="11px" fill="none" fill-rule="evenodd" stroke-linecap="square" stroke-miterlimit="1.42"><text id="b10487" style="font-family:'Tahoma';font-size:11px;" x="5" y="11">7:50 PM</text><use xlink:href="#b10487" fill="#575756"/></g></symbol></defs><use x="762" y="469" width="49" height="14" xlink:href="#g10486" transform="rotate(-90,762,469)"/><defs><symbol id="g10488" viewBox="0 0 49 14" preserveAspectRatio="none"><g font-family="Arial" font-size="11px" fill="none" fill-rule="evenodd" stroke-linecap="square" stroke-miterlimit="1.42"><text id="b10489" style="font-family:'Tahoma';font-size:11px;" x="5" y="11">7:55 PM</text><use xlink:href="#b10489" fill="#575756"/></g></symbol></defs><use x="823" y="469" width="49" height="14" xlink:href="#g10488" transform="rotate(-90,823,469)"/><defs><symbol id="g10490" viewBox="0 0 49 14" preserveAspectRatio="none"><g font-family="Arial" font-size="11px" fill="none" fill-rule="evenodd" stroke-linecap="square" stroke-miterlimit="1.42"><text id="b10491" style="font-family:'Tahoma';font-size:11px;" x="5" y="11">8:00 PM</text><use xlink:href="#b10491" fill="#575756"/></g></symbol></defs><use x="883" y="469" width="49" height="14" xlink:href="#g10490" transform="rotate(-90,883,469)"/><defs><symbol id="g10492" viewBox="0 0 49 14" preserveAspectRatio="none"><g font-family="Arial" font-size="11px" fill="none" fill-rule="evenodd" stroke-linecap="square" stroke-miterlimit="1.42"><text id="b10493" style="font-family:'Tahoma';font-size:11px;" x="5" y="11">8:05 PM</text><use xlink:href="#b10493" fill="#575756"/></g></symbol></defs><use x="943" y="469" width="49" height="14" xlink:href="#g10492" transform="rotate(-90,943,469)"/><defs><symbol id="g10494" viewBox="0 0 49 14" preserveAspectRatio="none"><g font-family="Arial" font-size="11px" fill="none" fill-rule="evenodd" stroke-linecap="square" stroke-miterlimit="1.42"><text id="b10495" style="font-family:'Tahoma';font-size:11px;" x="5" y="11">8:10 PM</text><use xlink:href="#b10495" fill="#575756"/></g></symbol></defs><use x="1003" y="469" width="49" height="14" xlink:href="#g10494" transform="rotate(-90,1003,469)"/><defs><symbol id="g10496" viewBox="0 0 49 14" preserveAspectRatio="none"><g font-family="Arial" font-size="11px" fill="none" fill-rule="evenodd" stroke-linecap="square" stroke-miterlimit="1.42"><text id="b10497" style="font-family:'Tahoma';font-size:11px;" x="5" y="11">8:15 PM</text><use xlink:href="#b10497" fill="#575756"/></g></symbol></defs><use x="1064" y="469" width="49" height="14" xlink:href="#g10496" transform="rotate(-90,1064,469)"/><defs><symbol id="g10498" viewBox="0 0 49 14" preserveAspectRatio="none"><g font-family="Arial" font-size="11px" fill="none" fill-rule="evenodd" stroke-linecap="square" stroke-miterlimit="1.42"><text id="b10499" style="font-family:'Tahoma';font-size:11px;" x="5" y="11">8:20 PM</text><use xlink:href="#b10499" fill="#575756"/></g></symbol></defs><use x="1124" y="469" width="49" height="14" xlink:href="#g10498" transform="rotate(-90,1124,469)"/><defs><symbol id="g10500" viewBox="0 0 49 14" preserveAspectRatio="none"><g font-family="Arial" font-size="11px" fill="none" fill-rule="evenodd" stroke-linecap="square" stroke-miterlimit="1.42"><text id="b10501" style="font-family:'Tahoma';font-size:11px;" x="5" y="11">8:25 PM</text><use xlink:href="#b10501" fill="#575756"/></g></symbol></defs><use x="1184" y="469" width="49" height="14" xlink:href="#g10500" transform="rotate(-90,1184,469)"/><defs><symbol id="g10502" viewBox="0 0 49 14" preserveAspectRatio="none"><g font-family="Arial" font-size="11px" fill="none" fill-rule="evenodd" stroke-linecap="square" stroke-miterlimit="1.42"><text id="b10503" style="font-family:'Tahoma';font-size:11px;" x="5" y="11">8:30 PM</text><use xlink:href="#b10503" fill="#575756"/></g></symbol></defs><use x="1244" y="469" width="49" height="14" xlink:href="#g10502" transform="rotate(-90,1244,469)"/><defs><symbol id="g10504" viewBox="0 0 49 14" preserveAspectRatio="none"><g font-family="Arial" font-size="11px" fill="none" fill-rule="evenodd" stroke-linecap="square" stroke-miterlimit="1.42"><text id="b10505" style="font-family:'Tahoma';font-size:11px;" x="5" y="11">8:35 PM</text><use xlink:href="#b10505" fill="#575756"/></g></symbol></defs><use x="1304" y="469" width="49" height="14" xlink:href="#g10504" transform="rotate(-90,1304,469)"/><defs><symbol id="g10506" viewBox="0 0 49 14" preserveAspectRatio="none"><g font-family="Arial" font-size="11px" fill="none" fill-rule="evenodd" stroke-linecap="square" stroke-miterlimit="1.42"><text id="b10507" style="font-family:'Tahoma';font-size:11px;" x="5" y="11">8:40 PM</text><use xlink:href="#b10507" fill="#575756"/></g></symbol></defs><use x="1365" y="469" width="49" height="14" xlink:href="#g10506" transform="rotate(-90,1365,469)"/><defs><symbol id="g10508" viewBox="0 0 49 14" preserveAspectRatio="none"><g font-family="Arial" font-size="11px" fill="none" fill-rule="evenodd" stroke-linecap="square" stroke-miterlimit="1.42"><text id="b10509" style="font-family:'Tahoma';font-size:11px;" x="5" y="11">8:45 PM</text><use xlink:href="#b10509" fill="#575756"/></g></symbol></defs><use x="1425" y="469" width="49" height="14" xlink:href="#g10508" transform="rotate(-90,1425,469)"/><defs><symbol id="g10510" viewBox="0 0 49 14" preserveAspectRatio="none"><g font-family="Arial" font-size="11px" fill="none" fill-rule="evenodd" stroke-linecap="square" stroke-miterlimit="1.42"><text id="b10511" style="font-family:'Tahoma';font-size:11px;" x="5" y="11">8:50 PM</text><use xlink:href="#b10511" fill="#575756"/></g></symbol></defs><use x="1485" y="469" width="49" height="14" xlink:href="#g10510" transform="rotate(-90,1485,469)"/><use x="618" y="486" width="3" height="3" xlink:href="#g10394"/><text id="b10512" style="font-family:'Tahoma';font-size:11px;" x="628" y="491">Downtime (% downtime)</text><use xlink:href="#b10512" fill="#575756"/><rect id="b10513" x="755" y="484" width="6" height="6"/><use xlink:href="#b10513" fill="#0b2558" fill-opacity="0.1176"/><text id="b10514" style="font-family:'Tahoma';font-size:11px;" x="766" y="491">Loading time (msec)</text><use xlink:href="#b10514" fill="#575756"/><text id="b10515" style="font-family:'Tahoma';font-size:11px;" x="665" y="12">Sensor: HTTP (Live Graph, 2 hours)</text><use xlink:href="#b10515" fill="#575756"/><text id="b10516" style="font-family:'Tahoma';font-size:11px;" x="670" y="27">Network Infrastructure / Internet</text><use xlink:href="#b10516" fill="#575756"/><rect id="b10517" x="285" y="40" width="75" height="12"/><use xlink:href="#b10517" fill="#ffffff" fill-opacity="0.498"/><text id="b10518" style="font-family:'Tahoma';font-size:9px;" x="288" y="50">Max: 2,183 msec</text><use xlink:href="#b10518" fill="#575756"/><rect id="b10519" x="1398" y="404" width="65" height="12"/><use xlink:href="#b10519" fill="#ffffff" fill-opacity="0.498"/><text id="b10520" style="font-family:'Tahoma';font-size:9px;" x="1401" y="414">Min: 235 msec</text><use xlink:href="#b10520" fill="#575756"/><text id="b10521" style="font-family:'Tahoma';font-size:8px;" x="1381" y="499">11/9/2021 8:50:31 PM - ID 2002</text><use xlink:href="#b10521" fill="#575756"/><text id="b10522" style="font-family:'Tahoma';font-size:8px;" x="5" y="499">PRTG Network Monitor 21.4.72.1649</text><use xlink:href="#b10522" fill="#575756"/></g></svg>