<svg height="54" viewBox="0 0 54 54" width="54" xmlns="http://www.w3.org/2000/svg"><g fill="none" fill-rule="evenodd" stroke="#d0011b" transform="translate(1 1)"><path d="m26 52c14.3594035 0 26-11.6405965 26-26s-11.6405965-26-26-26-26 11.6405965-26 26 11.6405965 26 26 26z" fill="#ef6374" fill-rule="nonzero"/><path d="m31.6568542 28 5.6538436-5.6538436c1.5664043-1.5664043 1.5651079-4.0977677.0030107-5.6598649-1.5589186-1.5589186-4.096105-1.5607493-5.6598649.0030107l-5.6538436 5.6538436-5.6538436-5.6538436c-1.5637599-1.56376-4.1009463-1.5619293-5.6598649-.0030107-1.5620972 1.5620972-1.5633936 4.0934606.0030107 5.6598649l5.6538436 5.6538436-5.6538436 5.6538436c-1.5664043 1.5664043-1.5651079 4.0977677-.0030107 5.6598649 1.5589186 1.5589186 4.096105 1.5607493 5.6598649-.0030107l5.6538436-5.6538436 5.6538436 5.6538436c1.5637599 1.56376 4.1009463 1.5619293 5.6598649.0030107 1.5620972-1.5620972 1.5633936-4.0934606-.0030107-5.6598649z" fill="#fff"/></g></svg>