<svg height="449" viewBox="0 0 600 449" width="600" xmlns="http://www.w3.org/2000/svg"><g fill="#3e3e3e"><path d="m466.405155 147.588069c.028797 1.229281.095988 2.444268.095988 3.678314 0 32.485416-9.848366 64.18943-27.649336 91.028731 2.721259-.395467 5.471315-.667053 8.278962-.667053 30.97532 0 56.176963 25.019203 56.176963 55.770286 0 30.751082-25.201643 55.770285-56.176963 55.770285-15.727629 0-30.3226-6.308404-41.087652-17.767398l-38.23681-37.998122.0048-.004765h-.0048l-104.948452-104.188708-1.204648-1.153046c-11.537755-10.687121-17.896958-25.171671-17.896958-40.79021 0-30.751082 25.201643-55.7702854 56.176962-55.7702854s56.181761 25.0192034 56.181761 55.7702854c0 15.613773-6.359203 30.103089-17.901757 40.794975l-28.090881 27.858936 67.858699 67.386513 26.377496-26.186542c30.351397-28.459283 47.744418-68.444267 47.744418-109.853882 0-83.2956962-68.261849-151.0633821-152.169736-151.0633821-83.903089 0-152.164937 67.7676859-152.164937 151.0633821 0 41.419145 17.388222 81.404127 47.749218 109.858646l140.96314 139.942678c28.66201 30.131677 68.938563 47.394021 110.650137 47.394021 83.907889 0 152.164937-67.767686 152.164937-151.063381 0-76.815766-58.058326-140.371497-132.890551-149.810278"/><path d="m221.88059 307.508944-26.895831 26.701126-1.156655 1.191164c-10.765051 11.458994-25.360023 17.767398-41.092452 17.767398-30.975319 0-56.176962-25.019203-56.176962-55.770285 0-30.751083 25.201643-55.770286 56.176962-55.770286 2.79325 0 5.528908.266821 8.230969.657523-17.728979-26.748772-27.596543-58.490903-27.596543-91.019201 0-1.234046.067192-2.449033.095988-3.678314-74.8322248 9.438781-132.89535055 72.994512-132.89535055 149.810278 0 83.295695 68.26184805 151.063381 152.16493655 151.063381 41.716374 0 81.988129-17.262344 110.654937-47.394021l26.367896-26.181778z"/><path d="m299.933211.2030009v95.2930967c30.975319 0 56.181761 25.0192034 56.181761 55.7702854 0 15.613773-6.359203 30.103089-17.901757 40.794975l-28.090881 27.858936 67.858699 67.386513 26.377496-26.186542c30.351397-28.459283 47.744418-68.444267 47.744418-109.853882 0-83.2956962-68.261849-151.0633821-152.169736-151.0633821"/></g></svg>